# xmcd CD database file
#
# Track frame offsets:
#	150
#	28778
#	67638
#	90648
#	131311
#	152250
#	187288
#	213524
#	240997
#
# Disc length: 3695 seconds
#
# Revision: 0
# Processed by: cddbd v1.5.1PL2 Copyright (c) Steve Scherf et al.
# Submitted via: CDex 1.50Beta7
#
DISCID=6a0e6d09
DTITLE=АРСЕНАЛ - THEBEST
DYEAR=1990
DGENRE=Jazz
TTITLE0=Голубоглазый блюз
TTITLE1=Воспоминание об Атлантиде
TTITLE2=Живая вода
TTITLE3=Искушение
TTITLE4=Загадочный сон
TTITLE5=Последний взгляд
TTITLE6=Желтое небо
TTITLE7=Незнакомка
TTITLE8=Сильвер-блюз
EXTD=YEAR: 1990
EXTT0=
EXTT1=
EXTT2=
EXTT3=
EXTT4=
EXTT5=
EXTT6=
EXTT7=
EXTT8=
PLAYORDER=
